<svg width="130" height="130" viewBox="0 0 130 130" fill="none" xmlns="http://www.w3.org/2000/svg">
<path d="M0.677929 58.544L23.5467 88.3418C23.9561 88.8753 24.7349 88.9654 25.2841 88.544C29.266 85.488 29.683 81.9145 30.0547 78.7647C30.42 75.6458 30.7358 72.9541 34.0296 70.4262C39.5249 66.2088 45.1239 67.9731 51.1498 75.8248C57.1749 83.6755 57.4353 89.5415 51.9378 93.7606C48.643 96.2893 45.9595 95.8978 42.8542 95.4424C39.7141 94.9848 36.156 94.4651 32.1738 97.5213C31.6247 97.9427 31.5103 98.7184 31.9205 99.2529L54.7912 129.053C55.2006 129.587 55.9803 129.678 56.5294 129.256L86.144 106.528C87.6809 109.142 87.276 111.496 86.8057 114.173C86.2447 117.373 85.6084 120.998 88.7044 125.032C92.1616 129.535 98.7076 133.038 110.28 124.156C121.851 115.276 120.162 108.044 116.707 103.542C113.611 99.5075 109.945 99.1854 106.708 98.8987C104.001 98.6609 101.622 98.441 99.4936 96.283L129.108 73.5549C129.658 73.1327 129.771 72.3568 129.362 71.8233L75.2452 1.31004C74.8365 0.777579 74.0595 0.687718 73.5094 1.10996L42.8371 24.6498C42.288 25.0712 42.1736 25.8469 42.5814 26.3783C42.5876 26.3864 42.5957 26.3883 42.5996 26.3934C42.6066 26.4025 42.6064 26.4108 42.6118 26.4179C45.5807 30.2863 49.1732 30.6036 52.335 30.8816C55.4699 31.1592 58.1733 31.3966 60.6307 34.5985C64.7279 39.9371 62.794 45.5469 54.7119 51.7497C46.6297 57.9524 40.7096 58.3721 36.6115 53.0323C34.1566 49.8335 34.6261 47.158 35.1679 44.0567C35.7182 40.9298 36.3423 37.3814 33.371 33.5099C33.3664 33.5038 33.3575 33.5009 33.3505 33.4917C33.3466 33.4867 33.3469 33.4784 33.3406 33.4702C32.932 32.9378 32.1539 32.8487 31.6048 33.2701L0.932537 56.81C0.381585 57.2312 0.268209 58.006 0.679187 58.5415L0.677929 58.544ZM32.7202 43.697C32.1592 46.8966 31.5237 50.5232 34.6205 54.5583C38.0753 59.0598 44.6224 62.5621 56.1937 53.6816C67.765 44.801 66.0748 37.568 62.6216 33.0685C59.5248 29.0334 55.8574 28.7094 52.6214 28.4235C49.9021 28.1871 47.5123 27.9623 45.3756 25.7758L73.9995 3.80802L126.63 72.3825L96.9507 95.16C96.4016 95.5814 96.2879 96.3581 96.6973 96.8916C99.6654 100.759 103.256 101.074 106.42 101.354C109.553 101.63 112.258 101.869 114.715 105.07C118.813 110.411 116.878 116.018 108.796 122.221C100.714 128.424 94.7936 128.844 90.6955 123.504C88.2389 120.303 88.7085 117.627 89.2526 114.529C89.8014 111.4 90.4248 107.851 87.4566 103.984C87.0464 103.449 86.2675 103.359 85.7184 103.78L56.0395 126.558L34.702 98.7551C37.3805 97.1581 39.7421 97.4915 42.4282 97.8841C45.6364 98.3525 49.2709 98.8828 53.4233 95.696C58.057 92.1398 61.7702 85.5393 53.1436 74.2989C44.5169 63.0584 37.1807 64.9381 32.547 68.4942C28.3945 71.6811 27.9674 75.3302 27.5902 78.5503C27.2748 81.2449 26.9857 83.6143 24.7512 85.7892L3.41169 57.984L32.0329 36.0183C33.5948 38.6446 33.1929 41.0099 32.7199 43.6981L32.7202 43.697Z" fill="url(#paint0_linear_304_5)"/>
<defs>
<linearGradient id="paint0_linear_304_5" x1="36.4646" y1="105.174" x2="111.035" y2="47.9438" gradientUnits="userSpaceOnUse">
<stop stop-color="#919191"/>
<stop offset="1" stop-color="#2B2B2B"/>
</linearGradient>
</defs>
</svg>
