<svg width="101" height="95" viewBox="0 0 101 95" fill="none" xmlns="http://www.w3.org/2000/svg">
<path d="M58.5928 92.4945L77.2491 72.8153L71.7519 68.5539L70.8034 69.3028L70.8044 69.3018C69.4149 70.39 67.356 70.4014 65.954 69.3282L60.7808 65.318C59.231 64.1114 59.0544 61.9991 60.3855 60.5951L64.8193 55.9182C65.4608 55.2395 66.3762 54.8211 67.3603 54.7555C68.3444 54.6898 69.3172 54.9817 70.063 55.5667L75.2362 59.577C76.6243 60.6667 76.9266 62.5084 75.9484 63.9156L75.2796 64.8726L80.7768 69.1341L99.4302 49.4579C100.422 48.4121 100.915 47.0515 100.798 45.6771C100.68 44.3019 99.965 43.0253 98.8072 42.1278L72.4978 21.7327L73.8644 20.2911C75.1382 20.7326 76.5309 20.8091 77.856 20.5096C79.1801 20.2112 80.3695 19.5515 81.2658 18.62L85.6997 13.9431C86.8388 12.7395 87.4022 11.1769 87.2682 9.59892C87.133 8.02027 86.3122 6.55378 84.984 5.52245L79.8165 1.51654C78.4865 0.487295 76.7584 -0.0221202 75.0135 0.0990488C73.2686 0.220304 71.6469 0.962509 70.5055 2.16454L66.0707 6.84248L66.0716 6.84149C65.1894 7.78207 64.6493 8.94681 64.5243 10.1749C64.3982 11.4021 64.6937 12.636 65.3707 13.7069L64.0041 15.1484L51.179 5.20641C50.0171 4.3194 48.5152 3.88091 46.9972 3.98631C45.4814 4.09165 44.0712 4.73252 43.0728 5.76972L26.3051 23.4567L24.568 22.1101C25.0571 20.9572 25.1416 19.6979 24.8116 18.5005C24.4804 17.3023 23.751 16.2267 22.7199 15.4172L17.5467 11.4069C16.217 10.3795 14.489 9.87194 12.7452 9.99402C11.0015 10.1161 9.38179 10.8582 8.24024 12.0583L3.80544 16.7363L3.80637 16.7353C2.66925 17.9388 2.10575 19.4996 2.23868 21.0766C2.37168 22.6536 3.19137 24.1192 4.5165 25.1516L9.68968 29.1618C10.7319 29.9595 12.021 30.4487 13.381 30.5598C14.742 30.6717 16.1073 30.4017 17.2913 29.7858L19.0284 31.1324L2.25594 48.8244L2.25687 48.8234C1.26645 49.8702 0.775595 51.2306 0.893358 52.6039C1.0111 53.9773 1.72696 55.2529 2.88358 56.1496L17.9073 67.7959L22.4458 63.0086L21.6231 62.1552L21.6242 62.156C20.4218 60.9004 20.4115 59.0403 21.6004 57.7742L26.0352 53.0963C26.675 52.4214 27.5844 52.0052 28.5643 51.938C29.5442 51.8708 30.5135 52.1583 31.2578 52.737L36.4254 56.7429C37.9781 57.9466 38.1596 60.0592 36.8318 61.466L32.3969 66.1439C31.1917 67.3973 29.1561 67.6715 27.5991 66.788L26.5407 66.1832L22.0022 70.9705L50.5105 93.0701C51.6694 93.9583 53.1682 94.3961 54.6819 94.289C56.1965 94.181 57.6012 93.5359 58.591 92.4937L58.5928 92.4945ZM73.1666 73.0981L56.3941 90.7901C55.9021 91.3091 55.2036 91.6286 54.4517 91.6809C53.699 91.7341 52.9545 91.513 52.3816 91.069L26.0887 70.6867L27.1915 69.5234C28.4664 69.9656 29.8611 70.042 31.1862 69.7425C32.5101 69.4422 33.7015 68.7806 34.5965 67.8485L39.0313 63.1705C40.1664 61.9672 40.7288 60.4055 40.5938 58.8287C40.4597 57.2509 39.6391 55.7862 38.311 54.755L33.1434 50.749C31.8145 49.7206 30.0885 49.2111 28.3436 49.3323C26.5986 49.4517 24.9778 50.1929 23.8372 51.3921L19.4024 56.07C18.5182 57.0107 17.977 58.1746 17.851 59.4038C17.7251 60.6328 18.0196 61.8677 18.6978 62.9394L17.595 64.1027L4.76984 54.1607C3.57615 53.2353 3.43504 51.611 4.45604 50.5281L23.1124 30.8489L17.3839 26.4082L16.4354 27.157L16.4364 27.156C15.0511 28.2459 12.9943 28.2589 11.5914 27.1867L6.41827 23.1765C4.86949 21.9707 4.69185 19.8576 6.02289 18.4536L10.4567 13.7767C11.7822 12.3786 14.1058 12.2079 15.6622 13.3956L20.8354 17.4059C22.2214 18.4957 22.5215 20.3357 21.5421 21.7402L20.8733 22.6973L26.618 27.1506L45.2714 7.47445C46.3075 6.41349 48.0889 6.2897 49.2941 7.1949L64.3178 18.8413L69.1192 13.7766L68.3085 12.9325C67.1053 11.6797 67.093 9.81969 68.281 8.55464L72.7148 3.87771C74.0477 2.4717 76.3883 2.30907 77.942 3.51351L83.1096 7.51942C83.856 8.09798 84.3184 8.92207 84.3927 9.80816C84.469 10.6941 84.1522 11.5714 83.5114 12.2473L79.0766 16.9253L79.0776 16.9243C77.8723 18.1776 75.8375 18.449 74.2834 17.5643L73.225 16.9595L68.4247 22.0251L96.9219 44.1161C98.1127 45.0444 98.2489 46.67 97.2255 47.7494L80.4578 65.4364L78.9903 64.2987C79.4783 63.145 79.5627 61.8838 79.2316 60.6856C78.9004 59.4874 78.1688 58.4101 77.137 57.6018L71.9638 53.5915C70.6341 52.5641 68.9061 52.0565 67.1623 52.1786C65.4186 52.3007 63.7989 53.0427 62.6584 54.2437L58.2236 58.9217L58.2246 58.9207C57.0863 60.1233 56.5228 61.6841 56.6558 63.2612C56.7888 64.8381 57.6085 66.3038 58.9336 67.3361L64.1068 71.3464C65.1491 72.1458 66.4392 72.6341 67.8012 72.7468C69.1613 72.8596 70.5286 72.5895 71.7137 71.9744L73.1666 73.0981Z" fill="white" fill-opacity="0.3"/>
</svg>
