<svg width="143" height="86" viewBox="0 0 143 86" fill="none" xmlns="http://www.w3.org/2000/svg">
<path d="M3.94924 26.8175L23.5447 44.9765L29.3275 43.3532L28.6203 42.5233L28.6213 42.5242C27.5954 41.3116 27.9148 40.108 29.3738 39.689L34.8158 38.1614C36.4521 37.7057 38.9071 38.3854 40.3051 39.681L44.9622 43.9966C45.6383 44.6218 45.9712 45.3101 45.8877 45.9076C45.8043 46.5052 45.3119 46.9637 44.5195 47.1814L39.0775 48.709C37.6016 49.1138 35.4371 48.6075 33.9785 47.5163L32.987 46.7721L27.2042 48.3954L46.7966 66.5516C47.8381 67.5166 49.3215 68.3079 50.9192 68.7491C52.5181 69.1899 54.1 69.2465 55.3179 68.9046L82.9942 61.1357L84.4296 62.4659C83.7169 63.0444 83.4042 63.8273 83.5343 64.7101C83.6634 65.592 84.2292 66.5293 85.1546 67.3965L89.8116 71.7122C91.0104 72.8217 92.7146 73.7289 94.5489 74.2355C96.3843 74.7416 98.2014 74.8069 99.6006 74.4153L105.037 72.8894C106.434 72.496 107.298 71.6781 107.44 70.6168C107.583 69.5555 106.992 68.3358 105.795 67.2255L101.137 62.9089L101.138 62.9098C100.2 62.0474 98.9492 61.3013 97.5586 60.7734C96.1692 60.2453 94.704 59.9602 93.3645 59.9578L91.9291 58.6277L105.421 54.8406C106.627 54.4924 107.373 53.78 107.497 52.8567C107.621 51.9346 107.112 50.8758 106.082 49.9099L88.4702 33.5891L90.2975 33.0762C91.543 33.7883 92.976 34.3041 94.4048 34.5555C95.8347 34.8066 97.1881 34.7802 98.2845 34.4795L103.726 32.9519C105.121 32.558 105.983 31.7395 106.125 30.6785C106.266 29.6175 105.675 28.3991 104.48 27.2894L99.8224 22.9729L99.8234 22.9738C98.6244 21.8655 96.9223 20.9589 95.0892 20.452C93.2561 19.9452 91.4401 19.8797 90.0403 20.2691L84.5983 21.7966C83.5138 22.1082 82.7437 22.6778 82.3965 23.4289C82.0483 24.1803 82.1381 25.0756 82.6545 25.9935L80.8272 26.5065L63.2104 10.1811L63.2114 10.182C62.1688 9.21722 60.6852 8.42724 59.0885 7.98698C57.4918 7.54669 55.9108 7.49107 54.6941 7.8326L38.8899 12.2689L43.6568 16.6864L44.77 16.5234L44.7689 16.5237C46.4054 16.2885 48.544 16.9717 49.8065 18.1334L54.4645 22.45C55.1365 23.0727 55.4678 23.7567 55.3868 24.3524C55.3058 24.9481 54.8191 25.4062 54.0342 25.6253L48.5981 27.1513C46.9647 27.6097 44.5085 26.9327 43.1068 25.638L38.4487 21.3214C37.2035 20.155 37.2171 18.8676 38.4834 18.288L39.349 17.8955L34.5821 13.478L4.59262 21.8962C3.38528 22.2422 2.64043 22.9531 2.51911 23.8745C2.39871 24.7968 2.91302 25.854 3.95042 26.8168L3.94924 26.8175ZM23.8789 42.4936L6.26211 26.1683C5.74532 25.6894 5.49103 25.1641 5.55234 24.7067C5.6127 24.2485 5.98687 23.8968 6.58948 23.7276L34.2485 15.9636L35.4068 17.037C34.6929 17.6159 34.3801 18.4 34.5102 19.2828C34.6415 20.1653 35.2092 21.1044 36.1355 21.9711L40.7936 26.2877C41.9927 27.3948 43.6959 28.301 45.5292 28.8066C47.3634 29.3131 49.1784 29.3778 50.5775 28.9862L56.0135 27.4603C57.4094 27.0673 58.2734 26.2506 58.4159 25.1893C58.5604 24.1285 57.9705 22.9098 56.7771 21.8011L52.119 17.4845C51.1811 16.6209 49.9314 15.8744 48.5397 15.3456C47.1482 14.8169 45.682 14.5309 44.3413 14.5288L43.183 13.4554L56.6744 9.66827C57.9301 9.31579 59.8189 9.83543 60.8981 10.8314L80.4936 28.9904L86.5197 27.2989L85.8125 26.4689L85.8135 26.4698C84.7851 25.2591 85.1022 24.0562 86.5603 23.6362L92.0022 22.1087C93.6374 21.6532 96.0935 22.3327 97.4916 23.6282L102.149 27.9439C103.541 29.234 103.362 30.6508 101.746 31.1173L96.3042 32.6449C94.8284 33.0485 92.6662 32.5415 91.2109 31.4507L90.2194 30.7064L84.1762 32.4028L103.769 50.559C104.82 51.5556 104.675 52.6391 103.44 53.0058L87.6362 57.4421L92.6793 62.1155L93.7799 61.9561C95.4133 61.7194 97.552 62.4014 98.8135 63.5621L103.471 67.8777C104.871 69.1751 104.68 70.5988 103.045 71.0576L97.6091 72.5835C96.824 72.8039 95.8026 72.7679 94.7727 72.4829C93.7427 72.1991 92.786 71.6895 92.113 71.0658L87.4549 66.7492L87.4559 66.7502C86.2106 65.5837 86.2274 64.2979 87.4945 63.7203L88.3601 63.3279L83.3158 58.6548L53.3381 67.0697C52.0795 67.4194 50.1901 66.8964 49.1153 65.9004L31.5035 49.5796L33.0473 49.1463C34.2939 49.858 35.7291 50.3745 37.159 50.6256C38.5889 50.8766 39.9446 50.8496 41.0398 50.5481L46.4817 49.0205C47.8767 48.6266 48.7387 47.8081 48.8799 46.7471C49.0211 45.6861 48.4301 44.4676 47.2345 43.3583L42.5765 39.0417L42.5775 39.0427C41.3797 37.934 39.6776 37.0275 37.8445 36.5206C36.0114 36.0138 34.1954 35.9482 32.7956 36.3376L27.3536 37.8652C26.267 38.1761 25.4979 38.7467 25.1486 39.4984C24.7994 40.2488 24.889 41.1454 25.4043 42.0636L23.8789 42.4936Z" fill="white" fill-opacity="0.3"/>
</svg>
