<svg width="145" height="135" viewBox="0 0 145 135" fill="none" xmlns="http://www.w3.org/2000/svg">
<path d="M135.445 87.1485L117.012 51.9707C120.152 50.7769 122.61 51.5951 125.404 52.5361C128.74 53.6592 132.523 54.9377 137.515 52.3216C143.089 49.4012 148.217 43.0355 141.015 29.2905C133.813 15.5467 125.659 16.1425 120.088 19.0618C115.095 21.6779 113.992 25.5133 113.018 28.8977C112.202 31.7306 111.474 34.2167 108.705 36.1172L90.2706 0.936294C89.9288 0.284011 89.1138 0.0348624 88.4536 0.38082L51.5753 19.7047C50.9151 20.0507 50.6561 20.8626 50.9979 21.5149C53.4763 26.2448 57.2448 27.279 60.5708 28.1935C63.8623 29.0975 66.7049 29.8788 68.7557 33.7926C72.1761 40.3202 69.1154 45.9686 59.4005 51.0591C49.6831 56.151 43.2971 55.4527 39.8767 48.925C37.8259 45.0112 38.8027 42.2288 39.9328 39.0076C41.0738 35.7525 42.3684 32.0652 39.8899 27.3353C39.5482 26.683 38.7344 26.4332 38.0742 26.7792L1.19595 46.1031C0.534456 46.4497 0.277983 47.2603 0.619774 47.9126L45.7948 134.123C46.1373 134.776 46.9478 135.026 47.6106 134.679L84.4856 115.357C85.1458 115.011 85.4042 114.201 85.0618 113.547C82.584 108.819 78.8142 107.782 75.4889 106.869C72.1979 105.963 69.3547 105.183 67.3033 101.268C63.8829 94.7407 66.9416 89.0884 76.6587 83.9968C86.3749 78.9056 92.7598 79.6044 96.1823 86.1359C98.2331 90.0497 97.2575 92.8314 96.1281 96.0538C94.9864 99.3077 93.6925 102.996 96.171 107.726C96.5134 108.38 97.3277 108.628 97.988 108.282L134.873 88.9543C135.534 88.6096 135.792 87.7996 135.449 87.1448L135.445 87.1485ZM98.6719 96.9157C99.8386 93.5901 101.16 89.8194 98.5752 84.8869C95.69 79.3806 89.333 74.3516 75.4204 81.6417C61.5079 88.9317 62.0239 97.0225 64.9086 102.528C67.4932 107.46 71.347 108.52 74.744 109.454C77.5872 110.233 80.0853 110.932 81.971 113.662L47.562 131.692L3.62528 47.8454L38.0343 29.8153C39.2064 32.921 38.3592 35.3696 37.3826 38.1552C36.2185 41.4794 34.8934 45.249 37.4793 50.184C40.3634 55.6881 46.7235 60.7199 60.6361 53.4298C74.5487 46.1398 74.03 38.0471 71.1459 32.543C68.5606 27.6092 64.7088 26.5506 61.3105 25.6172C58.4679 24.8358 55.9705 24.138 54.0836 21.4056L88.4959 3.3739L106.969 38.628C107.31 39.2802 108.125 39.5294 108.786 39.1834C113.572 36.6755 114.653 32.9211 115.608 29.6086C116.551 26.3306 117.364 23.5002 121.325 21.4251C127.932 17.963 133.59 20.9459 138.62 30.5438C143.65 40.1442 142.883 46.4934 136.275 49.9563C132.313 52.0321 129.524 51.0883 126.293 50.0006C123.026 48.8998 119.325 47.6513 114.537 50.1601C113.876 50.5067 113.617 51.3167 113.959 51.969L132.432 87.223L98.0231 105.253C96.8498 102.148 97.6981 99.6956 98.674 96.9148L98.6719 96.9157Z" fill="url(#paint0_linear_304_4)"/>
<defs>
<linearGradient id="paint0_linear_304_4" x1="141.013" y1="29.2883" x2="23.2067" y2="91.018" gradientUnits="userSpaceOnUse">
<stop stop-color="#919191"/>
<stop offset="1" stop-color="#2B2B2B"/>
</linearGradient>
</defs>
</svg>
