<svg width="105" height="102" viewBox="0 0 105 102" fill="none" xmlns="http://www.w3.org/2000/svg">
<path d="M79.4779 5.00325L54.4872 11.6361L56.0262 17.0649L57.151 16.9123L57.1497 16.9127C58.7925 16.6956 60.2996 17.5493 60.7 18.9237L62.1482 24.0325C62.5791 25.5669 61.4848 27.191 59.7019 27.6642L53.7626 29.2406C52.9021 29.4701 51.9927 29.394 51.2375 29.0302C50.4823 28.6664 49.9424 28.045 49.7375 27.3034L48.2893 22.1946C47.9086 20.8137 48.7546 19.3355 50.2822 18.7123L51.3238 18.2898L49.7848 12.8611L24.798 19.4929C23.4698 19.8454 22.3229 20.6376 21.6122 21.6952C20.9019 22.7538 20.6838 23.99 21.0079 25.1334L28.3734 51.1154L26.5428 51.6013C25.87 50.744 24.8993 50.1049 23.7602 49.77C22.6224 49.4347 21.3736 49.4209 20.1811 49.7293L14.2418 51.3057C12.7147 51.7121 11.3994 52.6231 10.5834 53.8373C9.76792 55.0525 9.51702 56.4724 9.88786 57.7853L11.3346 62.8886C11.7079 64.2007 12.6723 65.298 14.0142 65.9395C15.356 66.581 16.9677 66.7152 18.4955 66.3108L24.4361 64.7341L24.4348 64.7344C25.6223 64.4135 26.6903 63.7847 27.4925 62.9357C28.2949 62.0879 28.794 61.0586 28.9206 59.9892L30.7512 59.5033L34.3417 72.1689C34.6749 73.3062 35.5156 74.2568 36.6829 74.8149C37.8486 75.3722 39.2474 75.4922 40.5756 75.1489L63.0365 69.1875L63.5228 70.903C62.4988 71.5444 61.708 72.4332 61.2553 73.4502C60.8029 74.4682 60.7117 75.5629 60.9944 76.5887L62.4427 81.6975C62.8169 83.0082 63.7824 84.1041 65.1239 84.7445C66.4654 85.3849 68.0755 85.5183 69.6023 85.1154L75.5429 83.5387L75.5416 83.539C77.0672 83.1318 78.3815 82.2222 79.1978 81.0091C80.0139 79.7961 80.2651 78.3773 79.8971 77.0649L78.4488 71.9561C78.1511 70.9344 77.4949 70.0357 76.568 69.3848C75.6409 68.7329 74.4896 68.3595 73.2701 68.3159L72.7837 66.6005L95.251 60.6374L95.2497 60.6377C96.5776 60.2841 97.723 59.4912 98.4323 58.4339C99.1417 57.3767 99.3586 56.1408 99.0348 54.9986L94.8288 40.1618L88.7494 41.7754L88.8548 42.7462L88.8545 42.7451C89.0038 44.17 87.9343 45.5395 86.3348 45.9709L80.3943 47.5476C79.5372 47.7751 78.6334 47.6998 77.8804 47.3389C77.1274 46.978 76.5874 46.3613 76.38 45.6249L74.9334 40.5217C74.4987 38.9883 75.5896 37.3618 77.3718 36.8852L83.3124 35.3086C84.9164 34.8932 86.5587 35.5442 87.1819 36.8444L87.6031 37.7314L93.6825 36.1178L85.7015 7.96423C85.3711 6.82725 84.5322 5.87853 83.3671 5.32347C82.2008 4.7687 80.8035 4.65409 79.4787 5.00455L79.4779 5.00325ZM57.6262 13.1376L80.0934 7.17453C80.7525 6.9996 81.4466 7.05753 82.0248 7.33391C82.6042 7.60996 83.0188 8.08389 83.1792 8.64961L90.54 34.6154L89.0627 35.0075C88.3896 34.1491 87.4174 33.5093 86.2783 33.1743C85.1396 32.8405 83.8883 32.8273 82.6963 33.1368L76.7557 34.7135C75.2317 35.1214 73.9177 36.0321 73.1031 37.2459C72.2872 38.46 72.0373 39.8785 72.4081 41.1913L73.8548 46.2946C74.2278 47.6057 75.1907 48.7022 76.5326 49.3437C77.8735 49.9866 79.4839 50.1211 81.0094 49.7185L86.9499 48.1418C88.139 47.8216 89.2073 47.1939 90.0108 46.3446C90.8142 45.4953 91.3145 44.4657 91.4408 43.3952L92.9181 43.0031L96.5085 55.6686C96.8427 56.8475 96.0051 58.0986 94.634 58.466L69.6433 65.0989L71.247 70.7561L72.3718 70.6035L72.3706 70.6038C74.0112 70.3839 75.5176 71.2354 75.9193 72.6095L77.3675 77.7183C77.7981 79.2516 76.7041 80.8768 74.9212 81.35L68.9819 82.9264C67.2064 83.3976 65.4142 82.5501 64.9675 81.0269L63.5193 75.9181C63.1402 74.538 63.9868 73.062 65.5138 72.4412L66.5554 72.0188L64.9471 66.3456L39.9603 72.9774C38.5909 73.3223 37.221 72.6674 36.8667 71.4986L32.6608 56.6618L26.2291 58.3688L26.3312 59.3277C26.4827 60.7509 25.4148 62.1211 23.8165 62.5522L17.8773 64.1286C16.0918 64.6025 14.2918 63.742 13.8568 62.2076L12.4102 57.1044C12.2012 56.3673 12.3413 55.5689 12.8002 54.8875C13.2576 54.2053 13.9964 53.6941 14.8547 53.4663L20.7953 51.8896L20.794 51.8899C22.3981 51.4746 24.0381 52.1273 24.6586 53.4271L25.0797 54.314L31.5111 52.6059L23.5331 24.4634C23.2027 23.2836 24.0447 22.0335 25.4155 21.6697L47.8763 15.7083L48.2872 17.1576C47.2635 17.8001 46.4718 18.6904 46.0193 19.7084C45.5669 20.7263 45.4764 21.8233 45.7603 22.8485L47.2086 27.9573C47.5828 29.268 48.5482 30.3639 49.8898 31.0043C51.2313 31.6446 52.8414 31.7781 54.3679 31.3741L60.3085 29.7974L60.3072 29.7977C61.833 29.3916 63.1474 28.482 63.9636 27.2689C64.7798 26.0559 65.031 24.6371 64.663 23.3247L63.2147 18.2159C62.9179 17.1928 62.2604 16.2944 61.333 15.6415C60.4072 14.9893 59.2543 14.6152 58.0345 14.5705L57.6262 13.1376Z" fill="white" fill-opacity="0.3"/>
</svg>
