<svg width="104" height="104" viewBox="0 0 104 104" fill="none" xmlns="http://www.w3.org/2000/svg">
<path d="M82.185 9.83184C79.0006 12.4212 78.7711 15.3258 78.5703 17.8861C78.4006 20.0289 78.244 21.9127 76.5459 23.6685L58.2406 1.15699C57.9012 0.739605 57.2819 0.679278 56.8616 1.02105L34.1478 19.4921C32.8555 17.4407 33.1039 15.5668 33.3947 13.4339C33.7433 10.8868 34.1374 7.99901 31.5702 4.84199C28.7064 1.32005 23.4285 -1.36409 14.5549 5.85149C5.67957 13.0684 7.23261 18.7814 10.0965 22.3034C12.6636 25.4604 15.5696 25.6635 18.1341 25.8431C20.2787 25.9931 22.1646 26.1329 23.9114 27.8159L1.19898 46.2844C0.777876 46.6268 0.711416 47.2448 1.05081 47.6622L19.356 70.1737C17.2883 71.48 15.4129 71.2498 13.2793 70.9788C10.7305 70.653 7.84309 70.2842 4.65708 72.875C1.10536 75.763 -1.63047 81.0556 5.5213 89.8507C12.6731 98.6459 18.4117 97.0461 21.9648 94.1568C25.15 91.5668 25.3778 88.6663 25.5822 86.1058C25.7504 83.9629 25.9077 82.0784 27.6083 80.3193L45.9111 102.829C46.2511 103.248 46.869 103.308 47.2901 102.965L70.8115 83.8389L70.8139 83.837C71.235 83.4945 71.3021 82.8774 70.9641 82.4616L70.9621 82.4592C68.5017 79.4335 65.6572 79.2372 63.1488 79.0593C60.6662 78.887 58.5222 78.7379 56.4839 76.2312C53.0874 72.0543 54.447 67.5715 60.6447 62.5319C66.8418 57.4927 71.5039 57.0747 74.9024 61.2541C76.9368 63.756 76.6503 65.8894 76.3107 68.3526C75.9736 70.8482 75.5851 73.6692 78.0475 76.6974L78.0495 76.6997C78.3882 77.1163 79.0055 77.1757 79.4266 76.8333L79.429 76.8313L102.95 57.7049C103.372 57.3618 103.439 56.7453 103.099 56.3271L84.7934 33.819C86.8601 32.5148 88.737 32.7451 90.867 33.0164C93.4158 33.3422 96.3042 33.7088 99.4886 31.1194C103.043 28.2288 105.777 22.9381 98.6258 14.1438C91.474 5.3486 85.7366 6.94479 82.1849 9.83287L82.185 9.83184ZM98.2618 29.6029C95.7368 31.6561 93.6014 31.3864 91.1348 31.073C88.6416 30.7549 85.8178 30.3924 82.7618 32.8774C82.3407 33.2199 82.2744 33.8364 82.6144 34.2546L100.958 56.8129L79.0086 74.6595C77.7172 72.606 77.964 70.7334 78.2555 68.6013C78.6034 66.0534 78.9981 63.1664 76.4317 60.0102C73.566 56.4861 68.2894 53.8035 59.4158 61.0191C50.5405 68.2361 52.0949 73.9507 54.9579 77.4716C57.5244 80.6278 60.4297 80.8301 62.994 81.0112C65.1373 81.1596 67.0253 81.3003 68.7713 82.984L46.8248 100.83L28.4815 78.2714C28.1415 77.8532 27.5236 77.7931 27.1025 78.1355C24.0489 80.6185 23.8267 83.4604 23.6276 85.9652C23.4306 88.4432 23.2638 90.5862 20.7363 92.6414C16.5222 96.0682 12.0446 94.7486 7.04886 88.6049C2.05426 82.4627 1.67538 77.8116 5.89042 74.3841C8.4171 72.3296 10.5485 72.6012 13.0166 72.916C15.5107 73.2335 18.3367 73.5941 21.3905 71.1109C21.8124 70.7679 21.8787 70.1513 21.5393 69.734L3.19603 47.1757L25.9556 28.6687C26.3767 28.3263 26.4432 27.7083 26.1038 27.2909C23.6427 24.2643 20.7976 24.0672 18.2898 23.8902C15.8066 23.7171 13.6626 23.568 11.6255 21.0629C8.22911 16.886 9.59003 12.4049 15.7877 7.36521C21.9848 2.32605 26.6478 1.90739 30.0449 6.08516C32.082 8.5903 31.7905 10.721 31.4529 13.1866C31.1132 15.679 30.7273 18.5032 33.1886 21.5299C33.5279 21.9473 34.1465 22.0083 34.5676 21.6659L57.3292 3.15725L75.6725 25.7156C76.0119 26.1329 76.629 26.1937 77.0501 25.8513C80.1028 23.369 80.3272 20.5281 80.5242 18.0223C80.7192 15.5419 80.8881 13.3998 83.4156 11.3446C87.6297 7.91784 92.109 9.23604 97.1029 15.3775C102.097 21.524 102.477 26.1752 98.2638 29.6013L98.2618 29.6029Z" fill="url(#paint0_linear_304_3)"/>
<defs>
<linearGradient id="paint0_linear_304_3" x1="14.552" y1="5.8538" x2="75.1181" y2="80.337" gradientUnits="userSpaceOnUse">
<stop stop-color="#919191"/>
<stop offset="1" stop-color="#2B2B2B"/>
</linearGradient>
</defs>
</svg>
