<svg width="131" height="131" viewBox="0 0 131 131" fill="none" xmlns="http://www.w3.org/2000/svg">
<path d="M124.554 84.1675C120.145 81.6351 116.672 82.6795 113.611 83.6028C111.048 84.3747 108.794 85.0446 106.002 83.861L124.065 52.4081C124.4 51.825 124.199 51.0789 123.615 50.7434L92.1612 32.6813C93.9761 30.2538 96.261 29.6959 98.8642 29.0698C101.971 28.3224 105.497 27.4787 108.031 23.0665C110.857 18.1455 111.646 10.7965 99.3567 3.73968C87.0677 -3.31713 81.1193 1.06907 78.2935 5.98999C75.7611 10.3999 76.806 13.8715 77.7289 16.933C78.4997 19.4953 79.1689 21.7512 77.986 24.5413L46.5321 6.47918C45.9489 6.1443 45.2022 6.34625 44.8674 6.92942L26.1605 39.5062C25.8256 40.0894 26.0282 40.8349 26.6114 41.1698C30.8402 43.5982 34.2348 42.5741 37.2317 41.6717C40.197 40.7778 42.7582 40.0063 46.2574 42.0156C52.0935 45.3669 52.5348 51.1683 47.6061 59.7513C42.6779 68.3334 37.4457 70.8753 31.6095 67.5239C28.1103 65.5146 27.4859 62.9138 26.7625 59.9031C26.0314 56.86 25.2048 53.4119 20.9759 50.9835C20.3928 50.6486 19.6461 50.8506 19.3118 51.4326L0.606564 84.0065C0.271682 84.5897 0.474274 85.3353 1.05746 85.6702L78.1354 129.931C78.7196 130.267 79.4646 130.065 79.7995 129.482L97.857 98.0338C100.286 99.8483 100.844 102.13 101.47 104.735C102.216 107.841 103.063 111.369 107.473 113.901C112.397 116.729 119.742 117.515 126.798 105.228C133.857 92.9355 129.474 86.9872 124.553 84.1614L124.554 84.1675ZM108.691 111.792C105.191 109.782 104.567 107.181 103.843 104.171C103.115 101.129 102.287 97.6818 98.0612 95.2536L98.0556 95.2504C97.4736 94.9162 96.7264 95.1164 96.3909 95.7006L78.2914 127.22L3.32703 84.1705L20.7798 53.7777C23.208 55.5915 23.7672 57.8742 24.3927 60.4784C25.1402 63.5856 25.9839 67.1114 30.3962 69.6451C35.3172 72.4709 42.6663 73.2598 49.7223 60.9722C56.779 48.6834 52.3934 42.7338 47.4724 39.908C43.0613 37.375 39.5909 38.4205 36.5293 39.3433C33.9675 40.1159 31.7116 40.785 28.9203 39.6015L46.3764 9.20297L77.8929 27.301L77.8973 27.3036C78.4794 27.6378 79.2261 27.4359 79.561 26.8527C81.9893 22.6239 80.9659 19.2282 80.0634 16.2313C79.1694 13.266 78.3972 10.7059 80.4072 7.20565C83.7585 1.36964 89.5599 0.928408 98.141 5.85601C106.723 10.7843 109.265 16.0165 105.914 21.8526C103.905 25.3517 101.303 25.9755 98.2931 26.6995C95.2499 27.4305 91.8013 28.258 89.3734 32.4859L89.3728 32.487C89.0379 33.0702 89.2388 33.8162 89.8197 34.1498L89.8253 34.153L121.339 52.2494L103.239 83.7684C102.905 84.3515 103.108 85.0977 103.69 85.432C107.921 87.8617 111.315 86.8369 114.312 85.9345C117.277 85.0406 119.837 84.2684 123.339 86.2791C129.175 89.6304 129.617 95.4325 124.688 104.015C119.764 112.601 114.531 115.144 108.695 111.793L108.691 111.792Z" fill="url(#paint0_linear_304_2)"/>
<defs>
<linearGradient id="paint0_linear_304_2" x1="111.789" y1="10.8786" x2="52.0314" y2="114.941" gradientUnits="userSpaceOnUse">
<stop stop-color="#919191"/>
<stop offset="1" stop-color="#2B2B2B"/>
</linearGradient>
</defs>
</svg>
