<svg width="121" height="111" viewBox="0 0 121 111" fill="none" xmlns="http://www.w3.org/2000/svg">
<path d="M5.05311 80.357L29.6479 89.702L32.5237 83.8439L31.5265 83.2912L31.5277 83.2916C30.0757 82.4792 29.5354 80.7811 30.2551 79.2913L32.9614 73.7785C33.7774 72.1253 35.8575 71.3275 37.6122 71.9943L43.4573 74.2152C44.3051 74.5359 44.9613 75.1633 45.2801 75.9563C45.599 76.7493 45.5552 77.6433 45.1581 78.4403L42.4518 83.9531C41.7118 85.4365 39.9363 86.2547 38.2691 85.8806L37.1342 85.6232L34.2583 91.4813L58.8493 100.825C60.1564 101.322 61.6521 101.309 63.0051 100.788C64.3586 100.266 65.4595 99.2817 66.0652 98.0479L79.8289 70.011L81.6305 70.6956C81.5135 71.8845 81.7943 73.0591 82.436 74.0617C83.0765 75.0639 84.0458 75.8433 85.2134 76.2966L91.0586 78.5175C92.5623 79.0875 94.2794 79.0708 95.8328 78.4732C97.3866 77.8743 98.6514 76.7434 99.3479 75.3275L102.051 69.8206C102.745 68.4039 102.814 66.8185 102.244 65.4138C101.674 64.0093 100.51 62.8981 99.0074 62.3257L93.1609 60.1043L93.1622 60.1048C91.9891 59.666 90.6783 59.5791 89.4104 59.8547C88.1432 60.1293 86.9775 60.7543 86.0738 61.6443L84.2722 60.9598L90.9817 47.2926C91.5757 46.0586 91.6311 44.6821 91.1351 43.4601C90.6397 42.2399 89.6325 41.2723 88.3324 40.7672L66.2274 32.3682L67.1362 30.5171C68.4219 30.5655 69.7108 30.2468 70.8309 29.6045C71.9515 28.961 72.8464 28.0263 73.3961 26.9243L76.1025 21.4115C76.7947 19.9955 76.8616 18.4108 76.2907 17.0074C75.7199 15.604 74.5571 14.4944 73.0562 13.9214L67.2098 11.7L67.211 11.7005C65.7079 11.1321 63.9926 11.1481 62.4399 11.7446C60.8872 12.3412 59.623 13.4709 58.9246 14.8846L56.2183 20.3975C55.6834 21.5049 55.5223 22.7213 55.7599 23.8795C55.9969 25.0388 56.6194 26.0838 57.5433 26.8722L56.6345 28.7234L34.5232 20.322L34.5245 20.3225C33.2168 19.827 31.7218 19.8412 30.3701 20.3623C29.0184 20.8835 27.9187 21.8687 27.3136 23.1013L19.454 39.1114L25.4371 41.3847L26.0846 40.4415L26.084 40.4426C27.0386 39.0614 28.9077 38.4789 30.487 39.0707L36.3335 41.2921C37.1769 41.6126 37.8294 42.2357 38.1487 43.0248C38.468 43.8139 38.4277 44.7037 38.0366 45.4974L35.3332 51.0042C34.5209 52.6589 32.4417 53.4608 30.6851 52.7976L24.8387 50.5762C23.2678 49.967 22.469 48.3693 22.9581 46.8099L23.2947 45.7485L17.3116 43.4752L2.39759 73.8553C1.80163 75.0871 1.74616 76.4609 2.24274 77.6787C2.74053 78.8971 3.75051 79.8589 5.05345 80.3554L5.05311 80.357ZM28.3146 86.4154L6.20332 78.0141C5.55469 77.7676 5.05373 77.2889 4.80798 76.6837C4.56104 76.078 4.59225 75.3945 4.89193 74.7841L18.647 46.7648L20.1009 47.3172C19.9834 48.5073 20.2648 49.6835 20.9065 50.6862C21.5488 51.6876 22.5206 52.468 23.6885 52.92L29.535 55.1414C31.0374 55.7081 32.7533 55.691 34.3053 55.0928C35.8585 54.4951 37.1215 53.3649 37.818 51.949L40.5214 46.4421C41.2149 45.0266 41.2842 43.4429 40.714 42.0382C40.1455 40.633 38.9833 39.5223 37.4837 38.9497L31.6373 36.7283C30.4635 36.2879 29.1533 36.1998 27.8841 36.475C26.6151 36.7502 25.4482 37.3747 24.5439 38.266L23.0901 37.7135L29.7995 24.0464C30.4239 22.7743 32.0222 22.1564 33.3742 22.666L57.9689 32.011L60.9657 25.9064L59.9686 25.3536L59.9698 25.3541C58.5173 24.5456 57.9758 22.8499 58.6943 21.3596L61.4006 15.8468C62.216 14.1947 64.2967 13.3958 66.0514 14.0625L71.8965 16.2835C73.6439 16.9474 74.4125 18.815 73.6172 20.4678L70.9109 25.9806C70.1703 27.4624 68.3959 28.2783 66.7311 27.9023L65.5962 27.6449L62.5909 33.7668L87.1818 43.1103C88.5156 43.6392 89.0978 45.0731 88.4965 46.3485L80.6369 62.3586L86.9666 64.7636L87.6078 63.8332C88.5593 62.4522 90.4278 61.868 92.0059 62.4593L97.8511 64.6803C99.6083 65.3479 100.373 67.2321 99.5604 68.8878L96.857 74.3947C96.4665 75.19 95.7561 75.8265 94.8836 76.1613C94.0117 76.4978 93.0475 76.5067 92.2028 76.1858L86.3564 73.9644L86.3576 73.9649C84.7868 73.3556 83.991 71.7577 84.4819 70.2004L84.8186 69.139L78.4883 66.7352L63.5801 97.1034C62.952 98.374 61.3512 98.9882 60.0021 98.4756L37.8972 90.0766L38.6649 88.5127C39.9512 88.56 41.242 88.2405 42.3626 87.5971C43.4832 86.9537 44.3792 86.0165 44.9276 84.9144L47.6339 79.4016C48.3262 77.9855 48.393 76.4009 47.8222 74.9975C47.2514 73.5941 46.0886 72.4845 44.5871 71.9126L38.7407 69.6912L38.7419 69.6917C37.2394 69.1222 35.5241 69.1382 33.9714 69.7347C32.4187 70.3313 31.1545 71.461 30.4561 72.8747L27.7498 78.3875C27.2131 79.4957 27.0532 80.7125 27.2897 81.8729C27.5256 83.0317 28.1487 84.0783 29.072 84.8679L28.3146 86.4154Z" fill="white" fill-opacity="0.3"/>
</svg>
